<?xml version="1.0" encoding="UTF-8"?>
<svg id="Layer_1" data-name="Layer 1" xmlns="http://www.w3.org/2000/svg" version="1.1" viewBox="0 0 512 512">
  <defs>
    <style>
      .cls-1 {
        fill: #d38378;
        stroke-width: 0px;
      }
    </style>
  </defs>
  <path class="cls-1" d="M381,0c3,.8,6.1,1.5,9.1,2.5,19.6,6.3,32.5,24.2,32.7,45.5.2,17.2,0,34.3,0,51.5v5.4c.4,0,.7.2,1.1.3.8-2.2,1.6-4.5,2.4-6.7,4.6-12.4,14.9-17.5,27.5-13.4,6.6,2.2,13.3,4.4,19.8,7,10.4,4.1,15.2,13.9,12.3,24.7-1.1,4.2-2.7,8.2-4.1,12.5.6.4,1.1.9,1.6,1.1,21.7,8.7,31,27.9,26.8,52.5-3.5,20.4-12,39.1-20.1,57.8-10.5,24.3-21.4,48.4-31.5,72.8-2.7,6.5-2.9,14.1-4,21.3-.6,3.9-2.2,6.7-6.4,7.2-4.3.5-7.8-1.5-7.9-5.7-.2-6.2-.2-12.8,1.6-18.6,4.3-13.1,9.5-25.9,14.9-38.6,11.1-26.4,22.8-52.5,33.7-78.9,4.4-10.6,7.3-21.8,5.7-33.6-1.4-10.2-6.9-17.3-16.3-21.5-1,9.6-2,18.9-3,28.2-.2,2.3-.6,4.6-1,6.9-.9,5-4.2,7.6-8.6,6.9-4.2-.7-6.6-4.4-5.9-9.4,1.1-7.8,2.1-15.5,3.1-23.3.9-6.9-1.9-11.8-8.3-14.2-6.9-2.6-13.8-4.9-20.8-7.2-5.7-1.8-10.5-.2-13.9,4.8-13.9,20.5-24.6,42.6-34.5,65.2-13.1,30.1-23.9,61-32.5,92.7-.5,1.9-1,3.8-1.6,6.2,21,7.3,41.8,14.6,63.2,22.1,2.8-6.8,5.6-13.1,8.2-19.6,12.5-30.9,22.7-62.5,30.6-94.9.9-3.6,2.2-6.7,6.3-7.4,5.6-1,9.9,3.8,8.1,9.8-7.5,25.2-14.5,50.5-23,75.4-6.1,17.9-14.3,35.1-21.4,52.7-1.2,3-2,6.4-2.1,9.5-.1,37,0,74,0,111s-13.5,44.6-40.5,50.8c-.5.1-.9.5-1.3.7H42c-2.8-.8-5.7-1.5-8.5-2.4-18.5-5.8-31.8-22.9-32.5-42.4-.4-12.3-.2-24.7-.1-37,0-4.9,2.9-7.9,7-8,4.4-.1,7.3,3,7.4,8.2.1,10.3,0,20.7,0,31,0,22.5,13.3,35.8,35.7,35.8h321.5c22.4,0,35.6-13.3,35.6-35.8,0-27.2,0-54.3,0-81.5s-.1-3.2-.3-6.1c-3.5,5.6-5.9,10.3-9,14.5-7.8,10.6-15.5,21.2-24,31.2-6.1,7.2-13.7,12.6-23.4,14.5-1.2.2-2.4,2-3.2,3.3-2.5,4.3-6.1,6.1-9.8,4.4-4.1-1.9-5.1-5.3-4-9.6.4-1.4.5-3.5-.2-4.5-6.9-8.9-8.6-19.4-9.1-30.1-1.4-27.2,3-53.8,9-80.1,14.1-61,35.1-119.4,66.6-173.6,5.4-9.2,7.8-18.1,7.5-28.6-.5-21.8-.1-43.7-.2-65.5,0-21-13.7-34.6-34.8-34.6-52.2,0-104.3,0-156.5,0-33,0-57.8,24.7-58,57.7-.1,15.2.5,30.4-1,45.4-2.2,22.2-21.9,39.4-44.3,39.9-13.7.3-27.3,0-41,.2-27.8.3-50.8,19.2-56,46.4-1.2,6.1-1.1,12.6-1.1,18.9,0,57,0,114,0,171,0,2.2,0,4.4-.3,6.5-.7,3.8-3.4,5.8-7,5.8s-6.3-2.1-7-5.9c-.3-2-.2-4-.2-6,0-57.2,0-114.3,0-171.5,0-2.1-.5-4.2-.7-6.3v-8c.2-3.3.7-6.6.7-9.9.1-33.2,11.3-62,34.5-85.7,26.1-26.7,52.6-52.9,79.1-79.1,14.6-14.4,32-24.3,51.9-29.6,7.5-2,15.2-3.2,22.8-4.7h192,0ZM20.9,164.7c1.7-1.3,2.5-1.8,3.2-2.5,12.4-11.2,26.9-17.8,43.7-18.5,14.1-.5,28.3-.2,42.5-.4,20.2-.2,33.8-13.9,33.8-34,0-12.5,0-25,0-37.5,0-14.4,3.9-27.6,11.9-39.5,2.5-3.8,5.5-7.3,8.9-11.7-1.9.5-2.8.8-3.6,1.1-13.3,4.9-25.3,12-35.4,21.9-27.4,27-54.6,54.2-81.6,81.6-10.7,10.9-18.2,23.9-23.4,39.5h0ZM349.7,316.4c-.5,1.4-.8,2.3-1.1,3.2-5.1,21.9-8.9,44.1-9.1,66.6,0,8.1.9,16.3,2.6,24.2,2.2,9.9,6.8,11.4,14.9,5.1,5-3.8,10-8.1,13.5-13.2,10.1-14.6,19.6-29.6,29-44.7,3.9-6.3,6.8-13.2,10.4-20.2-20.5-7.1-40.2-14-60.2-21h0ZM466.5,128.1c1.9-5.3,4.1-10.3,5.2-15.6.4-1.9-1.3-5.6-2.9-6.4-7-3.1-14.2-5.5-21.5-7.6-1.6-.5-5.1.9-5.8,2.4-2.5,5.3-4.2,10.9-6.1,16.3,10.8,3.8,20.7,7.2,31.1,10.9h0Z"/>
  <path class="cls-1" d="M211.5,392.8c-22.1,0-44.3,0-66.4,0-1.7,0-3.4,0-4.9-.3-3.6-1-5.7-3.6-5.5-7.4s2.4-6.1,6.1-6.9c1.4-.3,3-.2,4.5-.2h133.9c1.5,0,3-.1,4.5.1,3.9.8,6.2,3.3,6.2,7.3,0,3.8-2.2,6.2-5.9,7.1-1.6.4-3.3.2-5,.2-22.5,0-45,0-67.4,0h0Z"/>
  <path class="cls-1" d="M196.5,235.1c-17.8,0-35.6,0-53.4,0-6.5,0-10.6-4.9-7.8-9.8,1.3-2.3,4.7-4.1,7.4-4.6,4.5-.8,9.3-.2,13.9-.2h88.4c1.2,0,2.3,0,3.5,0,5.9.2,9.3,2.9,9.3,7.5,0,4.6-3.4,7.2-9.4,7.2-17.3,0-34.6,0-52,0h0Z"/>
  <path class="cls-1" d="M196.5,340.1c-17.8,0-35.6,0-53.4,0-5.9,0-9.7-3.7-8.2-8.4.7-2.3,3.2-4.3,5.4-5.6,1.5-.9,3.9-.5,5.9-.5,33.3,0,66.6,0,99.9,0h2c6.5.1,9.9,2.7,9.8,7.4,0,4.7-3.3,7.2-9.9,7.2-17.1,0-34.3,0-51.4,0h0Z"/>
  <path class="cls-1" d="M196.5,445.2c-17.8,0-35.6,0-53.4,0-5.9,0-9.4-3.6-8.4-8.5.8-3.8,3.2-5.8,7-5.9,4-.1,8-.1,12-.1h92.4c1.8,0,3.7,0,5.5.2,4.1.6,6.3,3.2,6.3,7.1,0,4-2.3,6.6-6.4,7-3.6.3-7.3.2-11,.2-14.6,0-29.3,0-43.9,0h0Z"/>
  <path class="cls-1" d="M302.3,168.1c8.6-17.4,16.6-33.8,24.7-50.2.8-1.6,1.5-3.4,2.6-4.8,2.4-2.8,5.5-3.8,8.9-2,3.5,1.9,4.9,4.8,3.6,8.8-.4,1.3-1,2.5-1.6,3.7-9.8,19.8-19.5,39.7-29.3,59.5-4.3,8.7-9.9,9.1-15.6,1.3-5.1-7-10.1-14-15.2-21.1-3.5-4.9-3.1-9.1.8-11.8,3.8-2.6,7.6-1.5,11,3.1,3.1,4.2,6.2,8.5,9.9,13.5h0Z"/>
  <path class="cls-1" d="M302.3,288.8c4.8-9.7,9.2-18.6,13.6-27.5,4.1-8.3,8.1-16.7,12.3-25,2.5-5,6.5-6.6,10.5-4.4,3.8,2,5,6.1,2.7,10.7-10.2,20.9-20.4,41.8-30.8,62.6-3.2,6.5-9.5,7.1-13.8,1.3-5.6-7.6-11.2-15.3-16.6-23.1-3.1-4.4-2.6-8.4.9-11,3.5-2.6,7.9-1.6,11.1,2.7,3.2,4.3,6.4,8.8,10,13.8h0Z"/>
  <path class="cls-1" d="M180.7,168c12,0,24,0,36,0,5.9,0,9.3,2.8,9.2,7.4,0,4.5-3.3,7.3-8.9,7.3-24.7,0-49.3,0-74,0s-7.1-1.1-7.8-4.9c-.5-2.4.2-5.8,1.7-7.6,1.2-1.6,4.4-2.1,6.7-2.1,12.3-.2,24.7,0,37,0h0Z"/>
  <path class="cls-1" d="M176,273.1c11,0,21.9,0,32.9,0,5.7,0,8.9,2.6,9,7.1.1,4.7-3.2,7.6-9,7.6-21.8,0-43.6,0-65.3,0-5.8,0-9.2-3-9.1-7.6.2-4.4,3.4-7,9.1-7,10.8,0,21.6,0,32.4,0h0Z"/>
  <path class="cls-1" d="M87.4,168c6.1,0,12.3,0,18.4,0,5.3,0,8.2,2.7,8.3,7.2,0,4.5-2.9,7.4-8.1,7.4-12.3.1-24.6.1-36.9,0-5.2,0-8.2-2.9-8.3-7.3,0-4.6,3-7.3,8.6-7.4,6,0,12,0,17.9,0h0Z"/>
  <path class="cls-1" d="M86.8,235.1c-6,0-12,0-18,0-5.1,0-7.9-2.6-8-7-.1-4.3,2.6-7.5,7.5-7.6,12.7-.2,25.3-.2,38,0,5.2,0,8,3.3,7.7,7.8-.2,4.3-3,6.6-8.2,6.7-6.3,0-12.7,0-19,0Z"/>
  <path class="cls-1" d="M87.7,273.1c6.2,0,12.3,0,18.4,0,4.9,0,7.8,2.8,8,7,.1,4.5-2.8,7.6-7.9,7.6-12.4.1-24.9.1-37.4,0-5.1,0-8.1-3.1-8-7.6.1-4.3,3-7,7.9-7.1,6.3-.1,12.6,0,18.9,0h0Z"/>
  <path class="cls-1" d="M87.5,392.8c-6.1,0-12.3,0-18.4,0-5.2,0-8.2-2.9-8.3-7.3,0-4.5,3-7.4,8.1-7.4,12.3,0,24.6,0,36.9,0,5.2,0,8.2,2.8,8.3,7.3,0,4.5-2.9,7.3-8.1,7.4-6.1.1-12.3,0-18.4,0h0Z"/>
  <path class="cls-1" d="M87.4,340.1c-6.2,0-12.3,0-18.5,0-5.1,0-7.9-2.6-8.1-6.9-.2-4.5,2.7-7.5,7.9-7.6,12.5-.2,25-.2,37.5,0,5.3,0,8.1,3.1,7.8,7.7-.2,4.3-3,6.7-8.2,6.8-6.2.1-12.3,0-18.5,0Z"/>
  <path class="cls-1" d="M87.3,445.2c-6.2,0-12.3.1-18.5,0-5.1-.1-7.9-2.6-8-7-.1-4.5,2.7-7.4,8-7.5,12.5-.1,25-.1,37.5,0,5.1,0,7.8,2.8,7.7,7.2,0,4.4-2.7,7.1-7.8,7.2-6.3.1-12.7,0-19,0h0Z"/>
</svg>