<?xml version="1.0" encoding="UTF-8"?>
<svg id="Layer_1" data-name="Layer 1" xmlns="http://www.w3.org/2000/svg" version="1.1" viewBox="0 0 512 512">
  <defs>
    <style>
      .cls-1 {
        fill: #d38378;
        stroke-width: 0px;
      }
    </style>
  </defs>
  <g id="dir">
    <path class="cls-1" d="M252,512c-6.8-2.6-11.1-7.9-15.1-13.7-24.6-36-50.2-71.4-74-107.9-27.9-42.7-51.8-87.7-68.1-136.3-9.1-27.1-15.2-54.8-14.4-83.7C82.7,88.9,142.5,18.6,222.4,3.4c7.5-1.4,15.1-2.3,22.6-3.4h22c10,1.7,20.1,2.8,29.9,5.1,67.4,15.5,120.5,72.4,132.2,140.5,5.9,34.1.7,67-9.5,99.4-14.4,45.5-36.5,87.4-60.8,128.3-26.8,45-57.2,87.5-87.6,130.1-2.6,3.7-7.4,5.8-11.2,8.6h-8,0ZM255.8,482c1.2-1.4,1.9-2.1,2.4-2.9,27.4-38.4,54.5-76.9,78.7-117.4,24-40.1,45.8-81.2,59.7-126,8.3-26.8,12.8-54,8.7-82.2-12.5-85.6-96.9-144.1-181.1-125.3-80.4,17.9-131.5,95.2-116.8,176.2,5.3,28.9,14.8,56.2,26.9,82.8,23.6,52.1,54.3,100,87,146.7,11.2,15.9,22.6,31.7,34.4,48.1h0Z"/>
    <path class="cls-1" d="M355.5,176.4c0,52.2-40.2,95.3-92.6,99.4-50.7,3.9-96.6-32.4-105.1-83-2.6-15.4-1.6-30.5,3-45.4,2.8-8.9,8.9-13,16.2-10.7s10.1,8.9,7.5,17.9c-11.2,39.4,8.7,79.2,46.8,92.2,28.5,9.7,54.6,3.9,76.2-16.9,21.6-20.9,28.2-47,19.3-75.7-8.9-28.7-29.2-45.7-58.9-51.3-11.9-2.2-23.5-1-35.1,2.4-7.4,2.1-13.6-.9-15.9-7.3-2.6-7.2,1-14,9.3-16.5,21.4-6.5,42.7-6.1,63.8,1.6,39.2,14.2,65.4,51.8,65.4,93.4h.1Z"/>
  </g>
</svg>