<?xml version="1.0" encoding="UTF-8"?>
<svg id="Layer_1" data-name="Layer 1" xmlns="http://www.w3.org/2000/svg" version="1.1" viewBox="0 0 512 512">
  <defs>
    <style>
      .cls-1 {
        fill: #d38378;
        stroke-width: 0px;
      }
    </style>
  </defs>
  <path class="cls-1" d="M374,512c-10.1-1-20.2-1.9-30.2-3.1-16.2-2-32.2-5.2-47.4-11.4-4.5-1.8-8.8-4.1-12.9-6.6-9.5-5.8-14.1-13.8-13.9-25.6.9-71.5,20.9-137.1,60-196.9,1.5-2.3,2.4-5.5,2.5-8.3.3-10.2.1-20.3.1-30.5,0-6.7,1.5-8.1,8.3-8.2,30.7,0,61.3,0,92,0,4,0,5.8-1,7-5,4.8-16.1,11-31.8,14.9-48.1,4.7-19.4,2.3-38.7-5-57.3-1.2-2.9-2.7-4.1-5.9-4-7.3.2-14.6,0-22.5,0-.1,2.1-.4,3.9-.4,5.6,0,9.3.2,18.7-.2,28-.1,2.7-1.3,5.9-3.1,8-7.5,8.5-15.3,16.7-23.1,25-4.2,4.4-6.5,4.4-10.8-.1-7.6-8.1-15.4-16.2-22.7-24.6-1.9-2.1-3.2-5.5-3.3-8.4-.4-9.1-.1-18.3-.1-27.5v-5.9c-8.6,0-16.6-.2-24.5.2-1.4,0-3.2,2.6-3.9,4.3-8.7,22.6-9.2,45.5-1.6,68.5,1.5,4.4,3.1,8.8,4.6,13.2,1,3.1.2,5.7-2.9,7-3.3,1.3-5.6-.3-6.8-3.2-13-31.2-14.9-62.5-1.3-94.1,2-4.7,4.8-6.6,9.8-6.4,9.5.3,19,0,28.5,0,7.8,0,8.8,1,8.8,8.6,0,10.8,0,21.7,0,32.5,0,1.7.4,3.8,1.4,5,6.2,6.9,12.6,13.7,19.5,21,6.9-7.4,13.6-14.5,20.1-21.8.9-1,.9-3.1.9-4.7,0-11,0-22,0-33,0-6.2,1.2-7.5,7.2-7.6,10.7,0,21.3,0,32,0,3.9,0,6.1,1.6,7.6,5.1,11.9,26.7,13.5,54,4.7,81.8-1.4,4.4-2.8,8.9-4.7,13.2-8.9,20.8-11.5,42.5-10.1,64.9.6,8.9-.8,9.8-9.5,9.8-30.5,0-61,0-91.5,0-3.9,0-6.3,1-8.5,4.5-30.6,47-49,98.5-55.1,154.2-1.3,12.1-1.3,24.3-2.1,36.4-.5,7.2,2.6,12.5,8.7,15.6,7.2,3.7,14.8,6.8,22.8,10.4.7-2.3,1.2-3.6,1.5-5,6.4-33,12.8-66,19.2-99,.3-1.5.3-3.5,1.2-4.2,1.8-1.4,4.7-3.2,6.1-2.6,1.8.9,3.7,4.1,3.4,6-1.1,8.4-2.9,16.7-4.5,25-5.1,26.1-10.2,52.3-15.3,78.4-.2,1-.1,2-.2,3.4,20,4.6,40.1,6.2,61.2,6.6v-111.1c0-1.7-.4-3.7.4-4.9,1.2-1.7,3.3-3.8,5-3.8s3.8,2.1,5,3.8c.8,1.2.4,3.2.4,4.9,0,34.8,0,69.7,0,104.5v6.5c20.7-.1,40.8-2.1,60.9-6.4,0-1.5.2-2.8,0-4-6.4-33.2-12.9-66.3-19.4-99.5-.2-1-.3-2-.4-3-.5-3.4.2-6.2,3.9-6.9,3.9-.8,5.8,1.6,6.5,5.2,3.9,19.9,7.8,39.9,11.6,59.8,2.7,14,5.4,28.1,8.2,42.1.2.9.6,1.8,1.4,4,8.4-3.9,16.6-7.3,24.4-11.5,5.3-2.8,7.1-8.1,7-14-.5-54.3-12.4-105.9-36.5-154.7-2.7-5.4-5.5-10.6-8.3-15.9-1.8-3.3-2.1-6.6,1.8-8.5,3.7-1.9,5.9.5,7.6,3.5,20.9,37.6,35.2,77.6,41.3,120.2,2.7,18.8,3.3,37.8,4.7,56.7.7,9.3-4.5,15.7-11.5,20.9-9.4,7-20.1,11.4-31.4,13.6-17.3,3.4-34.8,5.5-52.2,8.2-2.8.4-5.6.7-8.4,1h-32,0ZM343.1,260.5h92.7v-28.2h-92.7v28.2Z"/>
  <path class="cls-1" d="M245,0c7.3,2.4,14.2,5.7,19,12.5.8-.6,1.3-.9,1.7-1.4,13.1-17,40.8-12.5,52.9,7.3,1.7,2.8,1.4,5.5-1.4,7.4-3.2,2.1-5.8.8-7.7-2-4-5.9-9.1-10.2-16.1-11.9-10.1-2.5-18.4,1.7-22.8,11.3-.9,1.9-2,4.4-3.6,5-1.7.7-4.2-.4-6.3-1-.6-.2-.9-1.3-1.3-2-6.2-11.2-13.3-15.6-22.8-14.2-9.8,1.5-18.4,10.5-20.6,21.3-1.8,8.7-.2,16.9,3.6,24.8,9.1,19,24.7,31.9,41.8,43.3,1,.7,3.5.2,4.9-.6,12.2-7.3,23.6-15.7,33.2-26.3,1.4-1.5,3.4-3,5.2-3.2,1.5-.2,4.2,1.4,4.6,2.7.5,1.9.2,5-1.1,6.2-7,6.9-14.1,13.7-21.8,19.8-6,4.8-12.6,8.7-19.3,12.5-2,1.1-5.6,1.6-7.3.5-20-12.5-38.2-26.8-49.1-48.5-5.2-10.4-7.5-21.5-5.2-32.9,3.2-15.4,12.4-25.4,27.8-29.5.6-.2,1.1-.6,1.7-.9h10,0Z"/>
  <path class="cls-1" d="M145.3,297.2c-2.1,3.3-3.4,6.4-5.6,8.8-1.7,1.9-4.4,3.9-6.7,4-18.5.3-37,.2-55.5.1-5.8,0-7.8-2.9-5.8-8.5,4.6-13.2,9-26.5,14-39.5,3-7.7.7-15.2.1-22.7-.9-12.6-2.5-25.2-3.8-37.8,0-.6-.3-1.2-.7-3.1-1.6,2.5-2.5,3.9-3.4,5.4-11.5,18.6-22.9,37.1-34.4,55.7-3.8,6.1-5.6,6.6-11.6,3-8.4-5.1-16.9-10.1-25.2-15.2-4.8-2.9-5.4-5.1-2.5-9.8,25.2-41.4,50.4-82.8,75.7-124.1,1.1-1.8,3.1-3.5,5.1-4.5,10.7-5.4,21.5-10.6,32.3-15.7,2.2-1,4.8-1.5,7.2-1.5,13.8-.1,27.7-.2,41.5,0,2.6,0,5.3.6,7.7,1.7,10.6,4.9,21.1,10,31.4,15.3,2.5,1.3,4.9,3.5,6.4,5.9,24.8,40.5,49.4,81,74.1,121.6,4,6.5,3.5,8.1-2.9,11.9-8.1,4.9-16.2,9.8-24.4,14.7-5.6,3.3-7.5,2.9-10.9-2.6-11.4-18.4-22.7-36.9-34.1-55.3-1.1-1.8-2.3-3.5-4.2-6.4-1.1,10.1-2.1,19-3,27.9-.9,8.9-2,17.9-2.7,26.8-.2,2.6.1,5.3.9,7.8,4.6,13.2,9.4,26.3,14.1,39.5,2.6,7.1.8,9.7-6.6,9.7-17.2,0-34.3-.2-51.5.1-5.4.1-8.9-1.5-11-6.4-.9-2.1-2.4-4-3.9-6.6h0ZM35.5,252.4c1.1-1.8,2.1-3.3,3.1-4.8,13.7-22.2,27.5-44.5,41.2-66.8,1.6-2.7,3.8-5,6.8-3.5,1.9,1,3.9,3.8,4.2,5.9,2.6,23,5,46,7.2,69.1.3,3.7-.4,7.6-1.5,11.2-3.4,10.5-7.2,20.7-10.8,31.1-.5,1.5-.9,3-1.5,5.1,11.5,0,22.3-.8,33,.2,10.7,1,18-1.8,21.6-12.2.4-1.1,1.1-2,1.8-3,3-4.3,7.1-4.3,9.9.1,2.5,3.8,4.4,7.9,7.1,11.5,1.3,1.7,3.8,3.2,5.8,3.3,13,.3,26,.2,39,.1,1.3,0,2.5-.3,4.5-.5-2.2-6.1-4-11.7-6.2-17.2-5.8-13.8-9.2-27.5-6.6-43,3.2-18.7,4.1-37.7,6.3-56.6.2-1.9,2.2-4.7,3.7-5,1.9-.4,4.3,1.3,6.3,2.5.9.5,1.3,1.9,1.9,2.9,13.4,21.7,26.8,43.4,40.1,65.1.9,1.5,2,2.9,3,4.6,7-4.2,13.4-8.1,20.1-12.1-1.2-2.1-2.1-3.7-3-5.2-22.4-36.8-44.9-73.7-67.2-110.6-2.9-4.8-6.4-7.8-12-9.2-1,2.2-2.1,4.4-3.1,6.7-12.9,29-25.9,58-38.8,87.1-1.4,3.1-3,6.2-6.8,4.9-2.1-.7-4.1-3.2-5.1-5.4-13.2-29.1-26.2-58.3-39.2-87.5-.9-1.9-1.8-3.8-2.7-5.8-5.2,1.7-8.8,4.1-11.5,8.6-22.4,37.2-45.1,74.3-67.7,111.4-.9,1.5-1.8,3.1-2.9,5.1,6.8,4.1,13.4,8,20.2,12.1h0ZM145.2,196c13.1-29.3,25.6-57.4,38.2-85.7-8.7-4.7-16.6-9.2-26.6-8.2-7.8.8-15.7.8-23.4,0-10.1-1-17.9,3.8-26.4,8.3,12.7,28.3,25.3,56.4,38.3,85.6h0Z"/>
  <path class="cls-1" d="M145,378.4c-1.1,9.9-2.1,18.5-3,27.2-3.1,30.5-6.2,60.9-9.3,91.4-.1,1,0,2.3-.6,2.9-1.6,1.8-3.5,4.4-5.4,4.6-3.2.3-5.1-2.3-4.8-5.6.8-8.8,1.6-17.6,2.5-26.3,3.6-34.6,7.1-69.2,10.7-103.8,1.6-14.9,3.2-29.8,4.7-44.7.4-3.6,1.5-6.3,5.6-6.2,4.1.1,5,3.1,5.4,6.5,4.7,46.4,9.5,92.7,14.2,139.1,1.1,11.1,2.3,22.2,3.6,33.2.4,3.9-.2,7.4-4.7,7.9-4.5.4-5.6-3-6-6.9-4-39.1-8-78.1-12.1-117.2,0-.3-.2-.5-.9-2.1h0Z"/>
  <path class="cls-1" d="M208.9,415.6v80c0,1.5.5,3.4-.2,4.4-1.2,1.9-3.2,4.4-4.9,4.5-1.7,0-4-2.3-5.3-4.1-.8-1.1-.3-3.2-.3-4.9v-159.4c0-1.2,0-2.3,0-3.5.3-3.4,1.9-5.8,5.6-5.6,3.5.2,5,2.4,5,5.7,0,4.7,0,9.3,0,14v69h0Z"/>
  <path class="cls-1" d="M92.1,416.5v78.4c0,1.5.5,3.3-.2,4.4-1.2,2-2.9,4.7-4.9,5.1-3.2.7-5.1-1.8-5.4-5.1,0-1.2,0-2.3,0-3.5v-160.4c0-1,0-2,0-3,.2-3.3,1.7-5.5,5.2-5.4,3.4,0,5.1,2.1,5.2,5.5,0,2.8,0,5.7,0,8.5v75.5h0Z"/>
  <path class="cls-1" d="M495.1,245.9c0,3.4.6,6.4-.2,8.9-.7,2-3.1,4.7-4.8,4.8-1.7,0-4.4-2.6-5-4.5-.9-2.7-.2-5.8-.2-9.2-3.1,0-5.4,0-7.7,0-3.7.1-6.5-1.4-6.5-5.2,0-4.2,2.9-5.6,6.7-5.5,2.3,0,4.6,0,7.5,0,0-3.4-.6-6.4.2-8.9.7-2,2.9-4.5,4.9-5,3.2-.7,5.1,1.8,5.2,5.1,0,2.6,0,5.3,0,8.7,2.7,0,4.9,0,7.2,0,3.7,0,6.9.9,7,5.3,0,4.3-2.9,5.5-6.7,5.4-2.1,0-4.3,0-7.4,0h0Z"/>
  <path class="cls-1" d="M32.8,418.1c0,3.4.1,6.1,0,8.7-.2,3.3-2,5.4-5.3,5.4s-5.1-2.1-5.3-5.4c-.1-2.6,0-5.3,0-8.7-3.2,0-5.9,0-8.7,0-3.4-.1-5.8-2-5.1-5.2.4-2,2.9-4.2,5-4.9,2.5-.8,5.5-.2,8.9-.2,0-3.3,0-5.9,0-8.6.1-3.3,1.8-5.5,5.1-5.6,3.6-.1,5.4,2.2,5.5,5.7,0,2.5,0,5,0,8.1,2.5.1,4.7.3,7,.3,3.6,0,7,.7,7,5.2,0,4.4-3.1,5.4-6.8,5.3-2.1,0-4.3,0-7.2,0h0Z"/>
  <path class="cls-1" d="M311.1,48.7c.4-4.2,4-7.1,8.3-6.7,4,.4,6.9,4,6.5,8-.4,3.9-3.9,7-7.8,6.8-4.1-.2-7.3-4-7-8.1h0Z"/>
  <path class="cls-1" d="M145.2,273.1c-4.4,0-8-3.4-8.1-7.8,0-4.4,3.9-8.3,8.3-8.2,4.3.1,7.7,3.7,7.7,8.2,0,4.5-3.4,7.8-7.9,7.8h0Z"/>
  <path class="cls-1" d="M153.1,232.1c.1,4.5-3.1,8-7.6,8.1-4.6.2-8.4-3.4-8.4-7.9,0-4.2,3.7-7.9,7.9-8,4.3,0,7.9,3.4,8,7.8h0Z"/>
</svg>