<?xml version="1.0" encoding="UTF-8"?>
<svg id="Layer_1" data-name="Layer 1" xmlns="http://www.w3.org/2000/svg" version="1.1" viewBox="0 0 512 512">
  <defs>
    <style>
      .cls-1 {
        fill: #d38378;
        stroke-width: 0px;
      }
    </style>
  </defs>
  <path class="cls-1" d="M489.8,203.8v-44.8c0-13.4-11-24.3-24.5-24.4h-85.6c-5.1,0-9.2-4.1-9.2-9.2s3.9-9,8.8-9.2c19.1-7.4,32.8-24.4,35.7-44.8,0-.1,0-.2,0-.3,5.7-31.1-14.9-61-46-66.7-24.3-4.5-48.7,7.1-60.6,28.7,0,0,0,0,0,.1l-44.5,78.1c-1.6,2.9-4.7,4.6-8,4.7-3.3,0-6.4-1.8-8-4.7l-43.5-78.1c-7.6-13.3-20-22.9-34.8-26.9-14.8-4-30.3-2.1-43.7,5.6-20.8,11.9-32.1,35.8-28.2,59.4,0,0,0,.2,0,.2,2.8,20.1,16.1,37.2,34.9,44.8,4.9.2,8.8,4.3,8.8,9.2s-4.1,9.2-9.2,9.2H46.7c-13.4,0-24.4,11.1-24.4,24.5v44.8c0,13.4,11.1,24.4,24.5,24.4h3.7c5.1,0,9.2,4.1,9.2,9.2v225.1c.5,25.4,21.5,46,46.9,46h300.8c24.9-.9,44.7-21.1,45.2-46v-225.1c0-5.1,4.1-9.2,9.2-9.2h3.7c13.4,0,24.4-11.1,24.4-24.5ZM140.7,98.5c-13.1-4.9-22.6-16.5-24.6-30.4-2.3-13.9,3-28,14-36.8,6.7-5.5,15.3-8.6,24.1-8.6h0c2.2-.2,4.5-.2,6.8,0,.3,0,.5,0,.8.1,11.2,2.1,20.8,9,26.3,18.9l40.5,71.9c1.9,3.4,1.5,7.6-1,10.5-1.8,2.1-4.4,3.2-7,3.2s-2.2-.2-3.2-.6l-76.6-28.4ZM50.4,209.3c-5.1,0-9.2-4.1-9.2-9.2v-37.4c0-5.1,4.1-9.2,9.2-9.2h149.5c5.1,0,9.2,4.1,9.2,9.2v37.4c0,5.1-4.1,9.2-9.2,9.2H50.4ZM283.9,480.5c0,5.1-4.1,9.2-9.2,9.2h-37.4c-5.1,0-9.2-4.1-9.2-9.2v-186.9c0-5.2-4.3-9.5-9.5-9.5s-9.5,4.3-9.5,9.5v186.9c0,5.1-4.1,9.2-9.2,9.2h-93.2c-.5,0-.9,0-1.4,0-14,0-25.8-10.9-26.7-25.1,0-.7,0-1.3,0-2v-225.2c0-5.1,4.1-9.2,9.2-9.2h130.8c5.2,0,9.5-4.3,9.5-9.5v-56.1c0-5.1,4.1-9.2,9.2-9.2h37.4c5.1,0,9.2,4.1,9.2,9.2v317.7ZM291.7,128c-2.6,0-5.2-1.1-7-3.2-2.5-2.9-2.9-7.1-1-10.5l40.5-71.9c5.4-10.2,15-17.3,26.3-19.6.3,0,.6-.1.9-.1,2.2-.2,4.5-.2,6.7,0,0,0,.1,0,.2,0,8.8,0,17.3,3.1,24,8.7,10.8,8.9,16,23,13.7,36.8-2,13.9-11.4,25.5-24.6,30.4l-76.4,29c-1.1.4-2.2.6-3.3.6ZM368.1,209.3c-5.2,0-9.5,4.3-9.5,9.5s4.3,9.5,9.5,9.5h56.1c5.1,0,9.2,4.1,9.2,9.2v225.2c0,7.1-2.6,13.8-7.6,18.9-5,5.1-11.7,8-18.8,8h-.5s-94.3,0-94.3,0c-5.1,0-9.2-4.1-9.2-9.2V162.8c0-5.1,4.1-9.2,9.2-9.2h149.5c5.1,0,9.2,4.1,9.2,9.2v37.4c0,5.1-4.1,9.2-9.2,9.2h-93.5Z"/>
</svg>