<?xml version="1.0" encoding="UTF-8"?>
<svg id="Layer_1" data-name="Layer 1" xmlns="http://www.w3.org/2000/svg" version="1.1" viewBox="0 0 512 512">
  <defs>
    <style>
      .cls-1 {
        fill: #d38378;
        stroke-width: 0px;
      }
    </style>
  </defs>
  <path class="cls-1" d="M256,490.27c-76.36,0-152.71,0-229.07,0-11.95,0-21.22-5.9-25.14-16.3-1.11-2.94-1.72-6.26-1.72-9.4C-.02,382.29-.01,300.02.03,217.75c0-9.91,4.31-17.79,12.18-23.71,67.24-50.56,134.48-101.1,201.73-151.65,5.22-3.93,10.43-7.88,15.68-11.77,15.97-11.82,36.86-11.92,52.74,0,62.47,46.88,124.89,93.84,187.33,140.77,10.03,7.54,20.08,15.07,30.09,22.64,8.06,6.09,12.22,14.18,12.22,24.33,0,81.86.01,163.71,0,245.57,0,15.42-11.01,26.32-26.6,26.33-76.46.03-152.92.01-229.38.01ZM19.03,225.98c0,1.77,0,2.86,0,3.96,0,77.4,0,154.79,0,232.19,0,7.02,2.08,9.11,9.05,9.11,151.99,0,303.98,0,455.97,0,6.76,0,8.91-2.16,8.91-8.95,0-77.19,0-154.38,0-231.56v-3.98c-1.73,1.14-2.83,1.84-3.9,2.57-70.53,48.46-141.05,96.92-211.57,145.4-14.91,10.25-31.05,10.28-45.8-.04-68.33-47.81-136.66-95.61-205-143.42-2.34-1.64-4.71-3.24-7.67-5.28ZM452.92,230.95c11.49-7.9,22.34-15.36,33.4-22.96-1.09-.9-1.79-1.51-2.53-2.06-70.72-53.16-141.43-106.33-212.17-159.47-10.07-7.57-21.22-7.54-31.31.04C169.75,99.51,99.2,152.55,28.65,205.59c-.71.54-1.35,1.18-2.33,2.06,10.88,7.61,21.49,15.03,32.76,22.92,0-1.99,0-3.1,0-4.21,0-10.58-.02-21.16.01-31.74.02-7.27,3.65-10.88,10.92-10.88,123.96,0,247.93,0,371.89,0,7.42,0,10.98,3.6,11,11.12.03,10.68,0,21.37,0,32.05,0,1.1,0,2.19,0,4.03ZM418.18,254.67c-.9-.48-1.25-.69-1.62-.86-20.72-9.81-33.5-25.94-38.16-48.37-.56-2.67-1.95-2.6-3.9-2.59-78.94.02-157.88.03-236.82-.04-2.65,0-3.66.7-4.23,3.4-4.55,21.61-16.89,37.24-36.69,46.99-.88.43-1.73.91-2.87,1.51.92.73,1.53,1.26,2.19,1.72,7.13,5,14.23,10.06,21.44,14.94,1.26.85,3.02,1.35,4.55,1.36,14.42.1,28.84.04,43.26.07,6.25.01,10.41,3.84,10.45,9.47.04,5.61-4.1,9.55-10.31,9.65-5.08.08-10.17,0-15.25.04-.74,0-1.48.19-2.59.34.67.58.95.88,1.27,1.11,31.61,22.12,63.21,44.26,94.85,66.33,7.18,5,14.82,4.8,22.33-.36,31.46-21.6,62.91-43.22,94.37-64.84.9-.62,1.76-1.31,3.21-2.4-1.67-.09-2.64-.18-3.62-.19-4.46-.02-8.94.24-13.37-.11-2.37-.18-4.94-.94-6.91-2.23-3.29-2.16-4.29-6.56-3.02-10.31,1.36-4.01,4.7-6.47,9.27-6.48,14.52-.05,29.05.02,43.57-.09,1.53-.01,3.27-.56,4.55-1.41,7-4.64,13.89-9.45,20.81-14.21,1-.69,1.94-1.44,3.26-2.42ZM78.3,238.97c16.23-1.47,35.88-21.28,35.9-35.82h-35.9v35.82ZM433.56,238.92c.09-.38.25-.76.25-1.15.02-10.87-.02-21.74.06-32.61.02-2.1-1-2.32-2.68-2.32-10.46.04-20.91.01-31.37.03-.76,0-1.53.19-2.3.3,3.39,18.58,20.45,33.9,36.03,35.75Z"/>
  <path class="cls-1" d="M256.05,224.04c32.25.03,58.47,26.32,58.34,58.49-.13,32.04-26.38,58.15-58.44,58.13-32.18-.02-58.47-26.4-58.34-58.54.13-32.09,26.31-58.12,58.43-58.08ZM255.85,321.49c21.67.07,39.32-17.43,39.36-39.02.04-21.65-17.45-39.27-39.06-39.36-21.61-.09-39.29,17.46-39.35,39.06-.07,21.67,17.4,39.25,39.06,39.32Z"/>
</svg>