<?xml version="1.0" encoding="UTF-8"?>
<svg id="Layer_1" data-name="Layer 1" xmlns="http://www.w3.org/2000/svg" version="1.1" viewBox="0 0 1080 1080">
  <defs>
    <style>
      .cls-1 {
        fill: #0f1739;
        stroke-width: 0px;
      }
    </style>
  </defs>
  <g>
    <path class="cls-1" d="M90.86,515.46c32.19,0,53.97,9.39,65.33,28.16,8.63,10.98,12.95,24.31,12.95,39.98v3.38c0,32.76-17.83,54.53-53.5,65.33-9.86,2.25-20.56,3.38-32.1,3.38h-29v56.88H-.09v-197.11h90.95ZM54.53,561.64v47.31h25.62c17.64,0,27.78-2.06,30.41-6.19,3-4.69,4.51-9.76,4.51-15.21,0-17.27-11.08-25.91-33.23-25.91h-27.31Z"/>
    <path class="cls-1" d="M255.07,635.98v-42.52h.14c19.8,0,31.54-2.09,35.2-6.27,3.66-4.18,5.49-9.08,5.49-14.71s-1.83-10.54-5.49-14.71c-3.66-4.18-8.85-6.27-15.56-6.27s-11.9,2.07-15.56,6.19c-3.47,4.04-5.3,8.73-5.49,14.08h-56.32c.19-24.22,12.25-42.14,36.18-53.78,13.14-4.51,26.28-6.76,39.42-6.76h3.52c13.14,0,26.28,2.25,39.42,6.76,24.12,11.73,36.18,29.9,36.18,54.49,0,17.27-5.91,31.35-17.74,42.24,11.83,10.89,17.74,24.97,17.74,42.24,0,24.59-12.06,42.75-36.18,54.49-13.14,4.51-26.28,6.76-39.42,6.76h-3.52c-13.14,0-26.28-2.25-39.42-6.76-24.12-11.73-36.18-29.89-36.18-54.49v-.7h56.32v.7c0,5.63,1.83,10.54,5.49,14.71,3.66,4.18,8.85,6.27,15.56,6.27s11.9-2.09,15.56-6.27c3.66-4.18,5.49-9.08,5.49-14.71s-1.83-10.54-5.49-14.71c-3.66-4.18-15.39-6.27-35.2-6.27h-.14Z"/>
    <path class="cls-1" d="M435.34,515.46v148.67h86.16v48.43h-140.79v-197.11h54.63Z"/>
    <path class="cls-1" d="M565.77,712.57v-134.6h-15.77v-48.43l70.39-14.08v197.11h-54.63Z"/>
    <path class="cls-1" d="M792.36,635.13h57.72c-6.01,27.03-23.79,49.65-53.36,67.86-15.11,8.26-31.63,12.39-49.56,12.39-31.82,0-59.41-13.33-82.78-39.98-15.02-19.15-22.53-40.17-22.53-63.07,0-36.13,16.14-65.04,48.43-86.73,17.55-10.89,36.89-16.33,58.01-16.33,28.16,0,53.87,10.89,77.15,32.66,13.89,15.86,22.43,32.85,25.62,50.97h-56.6c-4.04-11.73-12.67-21.4-25.91-29-6.95-3.38-14.27-5.07-21.96-5.07-19.52,0-34.17,9.57-43.93,28.72-3.38,6.67-5.07,14.74-5.07,24.22v.56c0,18.3,7.88,33.13,23.65,44.49,7.79,4.88,15.86,7.32,24.22,7.32h4.51c18.77,0,32.9-9.67,42.38-29Z"/>
    <path class="cls-1" d="M974.31,715.38c-29.19,0-54.09-10.04-74.69-30.13-20.6-20.08-30.9-44.3-30.9-72.65s10.3-52.56,30.9-72.65c20.6-20.08,45.5-30.13,74.69-30.13s54.09,10.04,74.69,30.13c20.6,20.09,30.9,44.3,30.9,72.65s-10.3,52.56-30.9,72.65c-20.6,20.09-45.5,30.13-74.69,30.13ZM924.47,611.76v.56c0,18.3,7.88,33.13,23.65,44.49,7.79,4.88,15.86,7.32,24.22,7.32h4.51c20.56,0,35.57-11.64,45.05-34.92,1.5-6.19,2.25-11.64,2.25-16.33v-2.82c0-19.8-9.57-35.2-28.72-46.18-6.95-3.38-14.27-5.07-21.96-5.07-19.52,0-34.17,9.57-43.93,28.72-3.38,6.67-5.07,14.74-5.07,24.22Z"/>
  </g>
  <g id="W_final" data-name="W final">
    <g>
      <polygon id="Shape_init" data-name="Shape init" class="cls-1" points="369.21 317.07 483.01 317.07 426.11 218.51 369.21 317.07"/>
      <polygon id="Shape_init-2" data-name="Shape init" class="cls-1" points="483.01 317.07 596.81 317.07 539.91 218.51 483.01 317.07"/>
      <polygon id="Shape_init-3" data-name="Shape init" class="cls-1" points="426.11 415.62 539.91 415.62 483.01 317.07 426.11 415.62"/>
      <polygon id="Shape_init-4" data-name="Shape init" class="cls-1" points="539.91 415.62 653.71 415.62 596.81 317.07 539.91 415.62"/>
      <polygon id="Shape_init-5" data-name="Shape init" class="cls-1" points="369.21 317.07 483.01 317.07 426.11 415.62 369.21 317.07"/>
      <polygon id="Shape_init-6" data-name="Shape init" class="cls-1" points="596.81 317.07 710.6 317.07 653.71 218.51 596.81 317.07"/>
      <polygon id="Shape_init-7" data-name="Shape init" class="cls-1" points="596.81 317.07 710.6 317.07 653.71 415.62 596.81 317.07"/>
    </g>
  </g>
  <g>
    <path class="cls-1" d="M105.27,820.55c-.69-.95-1.45-1.67-2.27-2.18s-1.74-.89-2.73-1.16c-.99-.27-1.98-.4-2.97-.4-1.63,0-3.06.19-4.29.56-1.23.38-2.24.89-3.05,1.53-.81.65-1.41,1.4-1.82,2.26-.41.86-.61,1.76-.61,2.71,0,1.42.25,2.56.76,3.44.51.87,1.15,1.57,1.92,2.1s1.63.94,2.56,1.24c.94.3,1.83.6,2.69.9l6.52,2.13c1.96.62,3.68,1.33,5.18,2.13,1.49.8,2.75,1.74,3.76,2.82,1.01,1.09,1.78,2.34,2.31,3.76.53,1.42.79,3.06.79,4.94,0,2.02-.41,3.89-1.24,5.61-.83,1.72-1.98,3.22-3.47,4.48-1.48,1.27-3.25,2.26-5.31,2.98-2.05.72-4.31,1.08-6.76,1.08s-4.67-.29-6.45-.85c-1.79-.57-3.29-1.33-4.5-2.29-1.22-.96-2.19-2.05-2.92-3.27-.73-1.23-1.3-2.48-1.71-3.77h-2.45v-5.55h8.13c0,2.39.25,4.08.76,5.07.51.99,1.21,1.81,2.11,2.47s1.98,1.15,3.23,1.48c1.25.33,2.62.5,4.13.5s2.78-.17,3.95-.52c1.17-.34,2.17-.84,3-1.5.83-.66,1.46-1.45,1.9-2.39.44-.94.66-1.99.66-3.18,0-1.31-.27-2.42-.82-3.34-.55-.91-1.25-1.69-2.11-2.34-.86-.65-1.8-1.17-2.82-1.58-1.02-.41-2.01-.76-2.95-1.06l-7.07-2c-1.55-.47-2.96-1.08-4.24-1.81-1.28-.73-2.38-1.62-3.29-2.68-.91-1.05-1.62-2.28-2.11-3.69-.5-1.41-.74-3.04-.74-4.89s.37-3.62,1.1-5.26c.73-1.63,1.81-3.06,3.23-4.29s3.16-2.19,5.21-2.89c2.05-.7,4.4-1.05,7.05-1.05,1.74,0,3.35.2,4.82.61,1.47.41,2.81.98,4,1.73,1.19.74,2.25,1.63,3.16,2.68.91,1.04,1.68,2.19,2.31,3.44h2.42v5.55h-7.9c0-1.89-.34-3.31-1.03-4.26Z"/>
    <path class="cls-1" d="M120.27,811.51h35.04v13.84h-6.61v-8.26h-17.45v15.65h14.68v5.55h-14.68v16.58h17.45v-8.26h6.61v13.81h-35.04v-5.55h4.65v-37.78h-4.65v-5.58Z"/>
    <path class="cls-1" d="M161.76,811.51h20.36c2.17,0,4.18.29,6.02.86,1.84.57,3.43,1.41,4.77,2.52,1.34,1.11,2.39,2.49,3.15,4.15.75,1.66,1.13,3.56,1.13,5.71,0,1.23-.22,2.44-.66,3.63-.44,1.19-1.05,2.3-1.84,3.32-.79,1.02-1.72,1.93-2.79,2.73-1.08.8-2.25,1.41-3.52,1.84.54.24,1.08.58,1.63,1.02.55.44,1.06.98,1.55,1.61.48.63.92,1.35,1.32,2.16.4.81.71,1.67.95,2.6l2.71,10.65h4.23l.06,6.13h-9.52l-3.65-14.87c-.67-2.67-1.68-4.63-3.05-5.89-1.37-1.26-3.23-1.89-5.6-1.89h-6.29v17.1h4.9v5.55h-15.87v-5.55h4.65v-37.78h-4.65v-5.58ZM172.73,817.09v15.39h9.39c1.23,0,2.35-.16,3.37-.48,1.02-.32,1.9-.81,2.65-1.45.74-.65,1.32-1.45,1.74-2.4.42-.96.63-2.07.63-3.34,0-2.43-.73-4.32-2.19-5.68-1.46-1.35-3.79-2.03-6.97-2.03h-8.61Z"/>
    <path class="cls-1" d="M236.86,811.51h15.87v5.58h-4.23l-15.84,43.33h-8.87l-15.61-43.33h-4.32v-5.58h15.87v5.58h-4.26l12.55,37.71,13.45-37.71h-4.61v-5.58Z"/>
    <path class="cls-1" d="M256.7,811.51h15.61v5.58h-4.65v37.78h4.65v5.55h-15.61v-5.55h4.65v-37.78h-4.65v-5.58Z"/>
    <path class="cls-1" d="M316.26,824.42c-1.44-2.45-3.35-4.38-5.73-5.77-2.38-1.4-5.03-2.1-7.95-2.1-2.5,0-4.77.53-6.84,1.58-2.06,1.05-3.83,2.47-5.31,4.24-1.47,1.77-2.62,3.83-3.44,6.16-.82,2.33-1.23,4.79-1.23,7.37,0,3.05.45,5.76,1.35,8.11.9,2.36,2.08,4.31,3.53,5.87,1.45,1.56,3.18,2.86,5.18,3.9,2,1.04,4.25,1.56,6.74,1.56,3.4,0,6.36-.82,8.87-2.47,2.52-1.65,4.67-4.35,6.45-8.11l5.68,2.68c-.82,2.32-2.2,4.56-4.16,6.73-1.96,2.16-4.37,3.9-7.24,5.23-2.87,1.32-6.05,1.98-9.53,1.98s-6.4-.63-9.19-1.89c-2.8-1.26-5.29-3.05-7.47-5.37-2.18-2.32-3.85-5.08-5-8.26-1.15-3.18-1.73-6.51-1.73-9.97s.58-6.77,1.73-9.87,2.76-5.79,4.84-8.08c2.08-2.29,4.55-4.1,7.42-5.42,2.87-1.32,5.98-1.98,9.34-1.98,2.99,0,5.57.42,7.74,1.27,2.17.85,4.02,1.86,5.53,3.03,1.52,1.17,2.82,2.45,3.92,3.82h3.42v5.74h-6.94Z"/>
    <path class="cls-1" d="M330.22,811.51h15.61v5.58h-4.65v37.78h4.65v5.55h-15.61v-5.55h4.65v-37.78h-4.65v-5.58Z"/>
    <path class="cls-1" d="M376.23,861.39c-3.38,0-6.46-.63-9.26-1.89-2.8-1.26-5.29-3.05-7.48-5.37-2.19-2.32-3.86-5.08-5-8.26-1.14-3.18-1.71-6.48-1.71-9.9s.58-6.84,1.73-9.94,2.76-5.79,4.84-8.08c2.08-2.29,4.55-4.1,7.42-5.42,2.87-1.32,6.03-1.98,9.47-1.98s6.63.66,9.52,1.98c2.88,1.32,5.36,3.13,7.42,5.42,2.06,2.29,3.67,4.98,4.81,8.08,1.14,3.1,1.71,6.41,1.71,9.94s-.58,6.83-1.73,9.92c-1.15,3.09-2.76,5.78-4.84,8.08-2.08,2.3-4.55,4.11-7.42,5.44-2.87,1.32-6.03,1.98-9.47,1.98ZM376.23,855.39c2.56,0,4.88-.53,6.95-1.58,2.08-1.05,3.84-2.47,5.31-4.24,1.46-1.77,2.59-3.83,3.39-6.18.8-2.34,1.19-4.82,1.19-7.42s-.44-5.24-1.31-7.73c-.87-2.48-2.09-4.59-3.65-6.31-1.56-1.72-3.37-3.05-5.44-3.98-2.06-.94-4.22-1.4-6.45-1.4-2.56,0-4.88.53-6.97,1.58-2.09,1.05-3.86,2.47-5.32,4.24-1.46,1.77-2.59,3.84-3.39,6.19-.8,2.35-1.19,4.82-1.19,7.4,0,3.01.44,5.69,1.32,8.05.88,2.36,2.05,4.31,3.5,5.87,1.45,1.56,3.18,2.87,5.19,3.92,2.01,1.05,4.3,1.58,6.86,1.58Z"/>
    <path class="cls-1" d="M430.62,820.55c-.69-.95-1.45-1.67-2.27-2.18s-1.74-.89-2.73-1.16c-.99-.27-1.98-.4-2.97-.4-1.63,0-3.06.19-4.29.56-1.23.38-2.24.89-3.05,1.53-.81.65-1.41,1.4-1.82,2.26-.41.86-.61,1.76-.61,2.71,0,1.42.25,2.56.76,3.44.51.87,1.15,1.57,1.92,2.1s1.63.94,2.56,1.24c.94.3,1.83.6,2.69.9l6.52,2.13c1.96.62,3.68,1.33,5.18,2.13,1.49.8,2.75,1.74,3.76,2.82,1.01,1.09,1.78,2.34,2.31,3.76.53,1.42.79,3.06.79,4.94,0,2.02-.41,3.89-1.24,5.61-.83,1.72-1.98,3.22-3.47,4.48-1.48,1.27-3.25,2.26-5.31,2.98-2.05.72-4.31,1.08-6.76,1.08s-4.67-.29-6.45-.85c-1.79-.57-3.29-1.33-4.5-2.29-1.22-.96-2.19-2.05-2.92-3.27-.73-1.23-1.3-2.48-1.71-3.77h-2.45v-5.55h8.13c0,2.39.25,4.08.76,5.07.51.99,1.21,1.81,2.11,2.47s1.98,1.15,3.23,1.48c1.25.33,2.62.5,4.13.5s2.78-.17,3.95-.52c1.17-.34,2.17-.84,3-1.5.83-.66,1.46-1.45,1.9-2.39.44-.94.66-1.99.66-3.18,0-1.31-.27-2.42-.82-3.34-.55-.91-1.25-1.69-2.11-2.34-.86-.65-1.8-1.17-2.82-1.58-1.02-.41-2.01-.76-2.95-1.06l-7.07-2c-1.55-.47-2.96-1.08-4.24-1.81-1.28-.73-2.38-1.62-3.29-2.68-.91-1.05-1.62-2.28-2.11-3.69-.5-1.41-.74-3.04-.74-4.89s.37-3.62,1.1-5.26c.73-1.63,1.81-3.06,3.23-4.29s3.16-2.19,5.21-2.89c2.05-.7,4.4-1.05,7.05-1.05,1.74,0,3.35.2,4.82.61,1.47.41,2.81.98,4,1.73,1.19.74,2.25,1.63,3.16,2.68.91,1.04,1.68,2.19,2.31,3.44h2.42v5.55h-7.9c0-1.89-.34-3.31-1.03-4.26Z"/>
    <path class="cls-1" d="M460.08,811.51h15.61v5.58h-4.65v37.78h4.65v5.55h-15.61v-5.55h4.65v-37.78h-4.65v-5.58Z"/>
    <path class="cls-1" d="M515.18,811.51h15.87v5.58h-4.16v43.33h-8.26l-22.74-40.55v35h5.03v5.55h-15.87v-5.55h4.52v-37.78h-4.65v-5.65h13.16l22.32,40.17.26-1.55v-32.97h-5.48v-5.58Z"/>
    <path class="cls-1" d="M537.31,811.51h35.04v13.84h-6.61v-8.26h-17.45v15.71h16.81v5.42h-16.81v16.65h4.9v5.55h-15.87v-5.55h4.65v-37.78h-4.65v-5.58Z"/>
    <path class="cls-1" d="M598.57,861.39c-3.38,0-6.46-.63-9.26-1.89-2.8-1.26-5.29-3.05-7.48-5.37-2.19-2.32-3.86-5.08-5-8.26-1.14-3.18-1.71-6.48-1.71-9.9s.58-6.84,1.73-9.94,2.76-5.79,4.84-8.08c2.08-2.29,4.55-4.1,7.42-5.42,2.87-1.32,6.03-1.98,9.47-1.98s6.63.66,9.52,1.98c2.88,1.32,5.36,3.13,7.42,5.42,2.06,2.29,3.67,4.98,4.81,8.08,1.14,3.1,1.71,6.41,1.71,9.94s-.58,6.83-1.73,9.92c-1.15,3.09-2.76,5.78-4.84,8.08-2.08,2.3-4.55,4.11-7.42,5.44-2.87,1.32-6.03,1.98-9.47,1.98ZM598.57,855.39c2.56,0,4.88-.53,6.95-1.58,2.08-1.05,3.84-2.47,5.31-4.24,1.46-1.77,2.59-3.83,3.39-6.18.8-2.34,1.19-4.82,1.19-7.42s-.44-5.24-1.31-7.73c-.87-2.48-2.09-4.59-3.65-6.31-1.56-1.72-3.37-3.05-5.44-3.98-2.06-.94-4.22-1.4-6.45-1.4-2.56,0-4.88.53-6.97,1.58-2.09,1.05-3.86,2.47-5.32,4.24-1.46,1.77-2.59,3.84-3.39,6.19-.8,2.35-1.19,4.82-1.19,7.4,0,3.01.44,5.69,1.32,8.05.88,2.36,2.05,4.31,3.5,5.87,1.45,1.56,3.18,2.87,5.19,3.92,2.01,1.05,4.3,1.58,6.86,1.58Z"/>
    <path class="cls-1" d="M628.93,811.51h20.36c2.17,0,4.18.29,6.02.86,1.84.57,3.43,1.41,4.77,2.52,1.34,1.11,2.39,2.49,3.15,4.15.75,1.66,1.13,3.56,1.13,5.71,0,1.23-.22,2.44-.66,3.63-.44,1.19-1.05,2.3-1.84,3.32-.79,1.02-1.72,1.93-2.79,2.73-1.08.8-2.25,1.41-3.52,1.84.54.24,1.08.58,1.63,1.02.55.44,1.06.98,1.55,1.61.48.63.92,1.35,1.32,2.16.4.81.71,1.67.95,2.6l2.71,10.65h4.23l.06,6.13h-9.52l-3.65-14.87c-.67-2.67-1.68-4.63-3.05-5.89-1.37-1.26-3.23-1.89-5.6-1.89h-6.29v17.1h4.9v5.55h-15.87v-5.55h4.65v-37.78h-4.65v-5.58ZM639.9,817.09v15.39h9.39c1.23,0,2.35-.16,3.37-.48,1.02-.32,1.9-.81,2.65-1.45.74-.65,1.32-1.45,1.74-2.4.42-.96.63-2.07.63-3.34,0-2.43-.73-4.32-2.19-5.68-1.46-1.35-3.79-2.03-6.97-2.03h-8.61Z"/>
    <path class="cls-1" d="M675.97,854.87h4.65v-37.2h-4.65v-6.16h15.49l15.52,42.23,15.71-42.23h14.68v6.16h-4.61v37.2h4.61v5.55h-15.87v-5.55h5.23v-37.55l-17.1,43.1h-5.48l-17.32-43.2v37.65h5.03v5.55h-15.87v-5.55Z"/>
    <path class="cls-1" d="M775.53,854.87h4.06l-3.87-11.1h-18.81l-3.77,11.1h5.03v5.55h-15.87v-5.55h4.26l15.23-43.36h9.52l15.2,43.36h4.9v5.55h-15.87v-5.55ZM758.75,838.42h15.1l-7.61-21.87-7.48,21.87ZM766.43,797.29h7.74v.55l-9.65,9.1h-4.97l6.87-9.65Z"/>
    <path class="cls-1" d="M806.33,854.87h4.48v-38.07h-11.16v7.61h-6.61v-12.9h43.62v12.9h-6.61v-7.61h-12.9v38.07h5.03v5.55h-15.84v-5.55Z"/>
    <path class="cls-1" d="M842.6,811.51h15.61v5.58h-4.65v37.78h4.65v5.55h-15.61v-5.55h4.65v-37.78h-4.65v-5.58Z"/>
    <path class="cls-1" d="M902.15,824.42c-1.44-2.45-3.35-4.38-5.73-5.77-2.38-1.4-5.03-2.1-7.95-2.1-2.5,0-4.77.53-6.84,1.58-2.06,1.05-3.83,2.47-5.31,4.24-1.47,1.77-2.62,3.83-3.44,6.16-.82,2.33-1.23,4.79-1.23,7.37,0,3.05.45,5.76,1.35,8.11.9,2.36,2.08,4.31,3.53,5.87,1.45,1.56,3.18,2.86,5.18,3.9,2,1.04,4.25,1.56,6.74,1.56,3.4,0,6.36-.82,8.87-2.47,2.52-1.65,4.67-4.35,6.45-8.11l5.68,2.68c-.82,2.32-2.2,4.56-4.16,6.73-1.96,2.16-4.37,3.9-7.24,5.23-2.87,1.32-6.05,1.98-9.53,1.98s-6.4-.63-9.19-1.89c-2.8-1.26-5.29-3.05-7.47-5.37-2.18-2.32-3.85-5.08-5-8.26-1.15-3.18-1.73-6.51-1.73-9.97s.58-6.77,1.73-9.87,2.76-5.79,4.84-8.08c2.08-2.29,4.55-4.1,7.42-5.42,2.87-1.32,5.98-1.98,9.34-1.98,2.99,0,5.57.42,7.74,1.27,2.17.85,4.02,1.86,5.53,3.03,1.52,1.17,2.82,2.45,3.92,3.82h3.42v5.74h-6.94Z"/>
    <path class="cls-1" d="M937.28,861.39c-3.38,0-6.46-.63-9.26-1.89-2.8-1.26-5.29-3.05-7.48-5.37-2.19-2.32-3.86-5.08-5-8.26-1.14-3.18-1.71-6.48-1.71-9.9s.58-6.84,1.73-9.94,2.76-5.79,4.84-8.08c2.08-2.29,4.55-4.1,7.42-5.42,2.87-1.32,6.03-1.98,9.47-1.98s6.63.66,9.52,1.98c2.88,1.32,5.36,3.13,7.42,5.42,2.06,2.29,3.67,4.98,4.81,8.08,1.14,3.1,1.71,6.41,1.71,9.94s-.58,6.83-1.73,9.92c-1.15,3.09-2.76,5.78-4.84,8.08-2.08,2.3-4.55,4.11-7.42,5.44-2.87,1.32-6.03,1.98-9.47,1.98ZM937.28,855.39c2.56,0,4.88-.53,6.95-1.58,2.08-1.05,3.84-2.47,5.31-4.24,1.46-1.77,2.59-3.83,3.39-6.18.8-2.34,1.19-4.82,1.19-7.42s-.44-5.24-1.31-7.73c-.87-2.48-2.09-4.59-3.65-6.31-1.56-1.72-3.37-3.05-5.44-3.98-2.06-.94-4.22-1.4-6.45-1.4-2.56,0-4.88.53-6.97,1.58-2.09,1.05-3.86,2.47-5.32,4.24-1.46,1.77-2.59,3.84-3.39,6.19-.8,2.35-1.19,4.82-1.19,7.4,0,3.01.44,5.69,1.32,8.05.88,2.36,2.05,4.31,3.5,5.87,1.45,1.56,3.18,2.87,5.19,3.92,2.01,1.05,4.3,1.58,6.86,1.58Z"/>
    <path class="cls-1" d="M991.68,820.55c-.69-.95-1.45-1.67-2.27-2.18s-1.74-.89-2.73-1.16c-.99-.27-1.98-.4-2.97-.4-1.63,0-3.06.19-4.29.56-1.23.38-2.24.89-3.05,1.53-.81.65-1.41,1.4-1.82,2.26-.41.86-.61,1.76-.61,2.71,0,1.42.25,2.56.76,3.44.51.87,1.15,1.57,1.92,2.1s1.63.94,2.56,1.24c.94.3,1.83.6,2.69.9l6.52,2.13c1.96.62,3.68,1.33,5.18,2.13,1.49.8,2.75,1.74,3.76,2.82,1.01,1.09,1.78,2.34,2.31,3.76.53,1.42.79,3.06.79,4.94,0,2.02-.41,3.89-1.24,5.61-.83,1.72-1.98,3.22-3.47,4.48-1.48,1.27-3.25,2.26-5.31,2.98-2.05.72-4.31,1.08-6.76,1.08s-4.67-.29-6.45-.85c-1.79-.57-3.29-1.33-4.5-2.29-1.22-.96-2.19-2.05-2.92-3.27-.73-1.23-1.3-2.48-1.71-3.77h-2.45v-5.55h8.13c0,2.39.25,4.08.76,5.07.51.99,1.21,1.81,2.11,2.47s1.98,1.15,3.23,1.48c1.25.33,2.62.5,4.13.5s2.78-.17,3.95-.52c1.17-.34,2.17-.84,3-1.5.83-.66,1.46-1.45,1.9-2.39.44-.94.66-1.99.66-3.18,0-1.31-.27-2.42-.82-3.34-.55-.91-1.25-1.69-2.11-2.34-.86-.65-1.8-1.17-2.82-1.58-1.02-.41-2.01-.76-2.95-1.06l-7.07-2c-1.55-.47-2.96-1.08-4.24-1.81-1.28-.73-2.38-1.62-3.29-2.68-.91-1.05-1.62-2.28-2.11-3.69-.5-1.41-.74-3.04-.74-4.89s.37-3.62,1.1-5.26c.73-1.63,1.81-3.06,3.23-4.29s3.16-2.19,5.21-2.89c2.05-.7,4.4-1.05,7.05-1.05,1.74,0,3.35.2,4.82.61,1.47.41,2.81.98,4,1.73,1.19.74,2.25,1.63,3.16,2.68.91,1.04,1.68,2.19,2.31,3.44h2.42v5.55h-7.9c0-1.89-.34-3.31-1.03-4.26Z"/>
  </g>
</svg>