<?xml version="1.0" encoding="UTF-8"?>
<svg id="Layer_1" data-name="Layer 1" xmlns="http://www.w3.org/2000/svg" version="1.1" viewBox="0 0 512 512">
  <defs>
    <style>
      .cls-1 {
        fill: #d38378;
        stroke-width: 0px;
      }
    </style>
  </defs>
  <path class="cls-1" d="M-.2,325.6c2.1-9,3.4-18.4,6.4-27,10.8-30.5,31.1-52.7,60.5-66.4,1.3-.6,2.7-1.3,4.7-2.2-26.5-18.8-39.5-44.1-36.3-76.3,2.1-21.7,12.3-39.5,29.4-53.2,34-27.2,83.8-21.6,111.3,12.5,27,33.5,23.8,87.5-19.3,116.9,3.9,1.9,7.5,3.7,11.1,5.6,6.9,3.6,9.2,9,6.2,14.6-2.9,5.5-8.6,6.6-15.6,3.1-54.3-27.7-117.9-.6-134.7,57.2-3.5,12-3.8,24.3-3.6,36.6,0,6.6,0,13.3,0,20.8h121.9c1.7,0,3.3,0,5,0,5.3.4,9,4.2,9.3,9.3.3,5.4-3.2,9.7-8.6,10.5-1.6.2-3.3.1-5,.1-43,0-86,0-128.9.1-6.1,0-10.6-1.7-13.7-7v-55h0ZM173.1,162.6c.2-32.4-26.3-59.2-58.8-59.4-32.8-.3-59.6,26.2-59.7,59-.1,32.4,25.9,59.3,57.5,59.5,34.4.2,60.8-25.4,61-59.1Z"/>
  <path class="cls-1" d="M213.3,353.2c-43.5-29-47.7-85.6-17.1-119.8,30.6-34.3,83.2-35.8,115.4-3.8,33.8,33.6,32,93.7-13.4,123.8,15.7,6.6,29.4,15.8,40.9,28.2,19.6,21.4,29.9,46.5,30.5,75.5.3,14,.1,28,0,42,0,8-3.6,11.7-11.5,11.7-68.3,0-136.6,0-204.9,0-8,0-11.6-3.6-11.6-11.6.2-17.8-.9-35.8,1.1-53.4,4.9-41.7,27.6-71.5,65.2-90,1.6-.8,3.3-1.5,5.3-2.5h0ZM348.8,490.6c0-14.9,1.4-29.3-.2-43.4-8.4-70.5-90.4-105.9-147.8-64.2-37.3,27-42.3,65.6-38.4,107.6h186.4,0ZM255.7,344.9c33.2,0,59.2-26,59.2-59.1,0-32.5-26.6-59.1-59-59.1-33.1,0-59.5,26.3-59.5,59.1s26.1,59.2,59.2,59.1h0Z"/>
  <path class="cls-1" d="M439.9,229.9c14.3,6.1,26.8,13.9,37.4,24.5,21.6,21.5,33.1,47.6,34.2,78,.5,14.5.2,29,.1,43.5,0,7.8-3.9,11.6-11.8,11.6-44.3,0-88.6,0-132.9,0-7.3,0-11.6-4-11.5-10.2.1-6,4.4-9.7,11.4-9.7,39.3,0,78.6,0,117.9,0h5.8c.4-.4.8-.6.8-.9.2-23.9,2.1-47.9-8.6-70.6-22.6-47.9-80.8-68.1-127.9-43.9-1.3.7-2.6,1.4-4,2-5.4,2.2-10.8.4-13.3-4.4-2.5-4.8-.9-10.3,4.2-13.2,4-2.3,8.3-4.2,13.1-6.6-27-19.2-39.9-45.2-35.9-78.1,2.6-21.8,13.5-39.5,31.1-52.8,34.3-25.9,83.8-19.1,110.2,15.1,26.2,33.9,22.2,86.7-20.5,115.9h0ZM338.3,162.7c.2,33.4,26.6,59.1,60.6,59,32-.1,58.1-27,57.9-59.6-.1-32.5-27.1-59.2-59.3-58.9-33.1.3-59.3,26.7-59.2,59.5h0Z"/>
  <path class="cls-1" d="M334.9,79.9c.1,43.4-35.2,78.9-78.6,79.1-44.1.2-79.8-35-79.9-78.9,0-44.2,35-79.5,79.1-79.6,44,0,79.3,35.1,79.4,79.3ZM255.9,139c32.9-.2,59.1-26.6,59-59.6,0-32.5-26.7-59-59.3-58.9-33,.1-59.3,26.5-59.2,59.4.1,33,26.6,59.3,59.5,59.1h0Z"/>
</svg>