<?xml version="1.0" encoding="UTF-8"?>
<svg id="Layer_1" data-name="Layer 1" xmlns="http://www.w3.org/2000/svg" version="1.1" viewBox="0 0 512 512">
  <defs>
    <style>
      .cls-1 {
        fill: #d38378;
        stroke-width: 0px;
      }
    </style>
  </defs>
  <path class="cls-1" d="M511.7,419.7l-15.5-57.4c-.9-3.3-3.9-5.6-7.3-5.6h-11.2v-174c0-4.2-3.4-7.6-7.6-7.6h-59.5v-26.2c0-3.6-2.5-6.6-6-7.4-58.2-12.7-118-19.3-177.6-19.7-63.5-.4-127.2,6.2-189.3,19.7-3.5.8-6,3.8-6,7.4v207.8h-11.1c-3.5,0-6.6,2.5-7.4,5.9L.2,420c-.5,2.2,0,4.6,1.5,6.4,1.4,1.8,3.6,2.9,5.9,2.9h496.8c2.4,0,4.6-1.1,6-3,1.4-1.9,1.9-4.3,1.3-6.6h0ZM46.9,155.1c59.1-12.4,119.6-18.5,180-18.1,56.5.4,113.1,6.5,168.5,18.1v27.7c0,4.2,3.4,7.6,7.6,7.6h59.5v166.4h-22.5v-128.2c0-4.2-3.4-7.6-7.6-7.6h-175.5c-4.2,0-7.6,3.4-7.6,7.6v128.2H46.9v-201.7h0ZM299.2,356.8v-68.5h39.6v68.5h-39.6ZM354,288.2h39.6v68.5h-39.6v-68.5ZM401.1,273.1h-109.5c-4.2,0-7.6,3.4-7.6,7.6v76.1h-19.6v-120.6h160.3v120.6h-16.1v-76.1c0-4.2-3.4-7.6-7.6-7.6h0ZM17.1,414.1l9.6-42.2h456.5l11.4,42.2H17.1Z"/>
  <path class="cls-1" d="M32.6,385.5c-4.2,0-7.6,3.4-7.6,7.6s3.4,7.6,7.6,7.6h446.1c4.2,0,7.6-3.4,7.6-7.6s-3.4-7.6-7.6-7.6H32.6Z"/>
  <path class="cls-1" d="M130.6,221h-48.2c-4.2,0-7.6,3.4-7.6,7.6v83.7c0,4.2,3.4,7.6,7.6,7.6h48.2c4.2,0,7.6-3.4,7.6-7.6v-83.7c0-4.2-3.4-7.6-7.6-7.6h0ZM123,304.7h-33v-68.5h33v68.5Z"/>
  <path class="cls-1" d="M214.1,221h-48.2c-4.2,0-7.6,3.4-7.6,7.6v83.7c0,4.2,3.4,7.6,7.6,7.6h48.2c4.2,0,7.6-3.4,7.6-7.6v-83.7c0-4.2-3.4-7.6-7.6-7.6h0ZM206.5,304.7h-33v-68.5h33v68.5h0Z"/>
  <path class="cls-1" d="M34.7,124.5c61.3-18,124.6-27,188.5-26.7,61.7.3,123.1,9.2,182.4,26.7.7.2,1.4.3,2.1.3,3.3,0,6.3-2.1,7.3-5.4,1.2-4-1.1-8.2-5.1-9.4-60.6-17.8-123.4-27-186.6-27.3-65.3-.3-130.1,8.9-192.8,27.3-4,1.2-6.3,5.4-5.1,9.4,1.2,4,5.4,6.3,9.4,5.1h0Z"/>
</svg>