<?xml version="1.0" encoding="UTF-8"?>
<svg id="Layer_1" data-name="Layer 1" xmlns="http://www.w3.org/2000/svg" version="1.1" viewBox="0 0 512 512">
  <defs>
    <style>
      .cls-1 {
        fill: #d38378;
        stroke-width: 0px;
      }
    </style>
  </defs>
  <path class="cls-1" d="M-.2,512.8c5.7-20.8,11-40.3,16.3-59.8,5.5-20.4,10.9-40.8,16.5-61.1,1.8-6.7.9-12.9-2.2-19C5.6,324.6-4.1,273.5,3.7,219.8c8.8-60.7,35.6-112.3,81.5-153.6C128.5,27.2,179.6,6,237.4,1.6c79.7-6,147,21.4,202.4,78.3,30.4,31.2,51,68.4,61.4,110.6,18,73.3,6.7,142.3-34.8,205.5-32.7,49.9-78.1,83.9-135,101.5-63.6,19.6-126,14.8-186.3-13.6-8.1-3.8-15.9-4.7-24.6-2.4-39.7,10.5-79.5,20.6-120.6,31.3h0ZM57.8,454.8c2.6-.4,3.7-.4,4.7-.7,20.8-5.4,41.8-10.5,62.5-16.5,9.7-2.8,17.8-1.7,26.7,3.1,60.5,33.3,123.6,37.2,186.7,9.9,74-32.1,117.7-89.5,128.1-169.9,7.9-60.7-8.3-115.8-47.8-162.4-47.9-56.5-109.8-82.1-183.8-75.2-63.8,6-115.8,35.2-152.2,87.8-49.8,72-54.5,148.3-13.5,226.3,7.5,14.3,9.2,27.9,4.1,43.2-5.8,17.5-10.1,35.4-15.5,54.3h0Z"/>
  <path class="cls-1" d="M327.2,376.8c-30-1.7-54.9-10.3-78.4-23.4-44-24.6-77.4-60-103.9-102.4-8.6-13.8-15.8-28-17.6-44.4-2.8-25.2,5.8-46.2,24.2-63.2,6.9-6.4,24-8,32.2-3.4,2.1,1.2,4.1,3.4,5.1,5.6,7.4,17.2,14.7,34.4,21.6,51.8,2.7,6.7-1.5,12.3-5.1,17.4-3.2,4.6-7,8.9-10.7,13.2-4.2,4.9-4.8,10.2-1.4,15.6,20.8,34.4,49.1,60.1,87,74.7,6.9,2.7,12,1.2,16.5-4.8,5.6-7.5,11.7-14.6,17.7-21.8,4-4.8,8.3-6,14.3-2.9,15.3,7.8,30.9,15.1,46.4,22.4,6,2.8,8.6,6.9,8.3,13.8-.7,21.1-15.8,41.1-36.8,47.4-7.2,2.1-14.8,3.3-19.4,4.3h0Z"/>
</svg>