<?xml version="1.0" encoding="UTF-8"?>
<svg id="Layer_1" data-name="Layer 1" xmlns="http://www.w3.org/2000/svg" version="1.1" viewBox="0 0 512 512">
  <defs>
    <style>
      .cls-1 {
        fill: #d38378;
        stroke-width: 0px;
      }
    </style>
  </defs>
  <g id="Layer_3" data-name="Layer 3">
    <path class="cls-1" d="M512,212v24c-.3,1.6-.7,3.2-1,4.9-1.3,8.2-2,16.6-3.8,24.6-13.2,57.3-46.4,100.1-95.4,131.4-1.6,1-3.2,2.1-4.7,3.1,13.2,26.1,12.1,50.7-6.3,72.9-17.1,20.6-39.9,28-65.6,20.6-30-8.6-44.9-30.3-47.5-61.2-21.2-.5-42.4-1.1-63.6-1.6-1,42.2-34.8,67.5-68.3,65.2-17.6-1.2-32.4-8.5-43.9-21.9-15.2-17.8-19.2-38.2-12.8-60.8-2.7-.8-4.9-1.5-7.1-2.1-22.4-6.8-44-15.3-62.4-30.4-13.2-10.8-22.8-24.1-27.1-40.9-1-3.9-1.7-7.8-2.6-11.6v-11c3.3-9.5,10-12.9,19.9-13.1,18.9-.4,32.8-9.2,39.5-27.4,2.2-5.9,4.1-12.1,4.5-18.3.8-11.2.2-22.6.4-33.9,1.1-54.8,20.8-102.2,59.5-140.8C173.7,33.8,234.7,12.6,304.6,16.9c49.4,3,93.5,20.2,131.7,51.6,37.8,31.1,62.5,70.5,72,118.9,1.6,8.1,2.5,16.4,3.8,24.6h0ZM35,335.9c2.3,6.9,7.2,13.2,13.3,18.5,19.3,16.8,43,24,67.2,30,1.1.3,2.9-.5,3.9-1.3,29.3-24.4,71.4-17.7,92.6,12,1,1.4,3.1,2.8,4.7,2.8,25.3.9,50.6,1.4,75.9,2.2,3.5.1,5.3-1.5,7.2-4.2,18.3-26.4,51.1-35,80-21,2.8,1.3,4.8,1.2,7.4-.2,19.5-11,36.9-24.5,51.4-41.6,33.5-39.4,47.8-84.7,39.3-135.9-8.3-49.5-35.1-87.7-76.6-115.2-51.8-34.4-108.6-42.8-168.2-26.5-54.6,14.8-96,47.2-121.2,98.7-11.1,22.6-16.1,46.7-15.8,72,.2,13.6.5,27.4-1.3,40.8-3.1,22.1-12,41.8-31.1,54.9-8.5,5.8-18.5,9.3-28.5,14.2h0l-.2-.2Z"/>
    <path class="cls-1" d="M287.8,336.1c-45.5-.3-84.8-31.6-94.9-75.6-2.1-9.4,2.4-17.4,11.3-19.8,8.6-2.3,17.1,2.8,19.5,12.5,4.6,18,14.5,32,30.4,41.6,37.2,22.4,85.3,3.4,97.3-38.3.6-2.1,1.1-4.2,1.9-6.2,3-7.6,11.4-11.7,19.1-9.4,8,2.4,12.7,10.2,11.2,18.2-7.7,39.4-43.3,71.9-83.4,75.9-4.1.4-8.3.7-12.4,1.1h0Z"/>
    <path class="cls-1" d="M208.8,175.9c0-8.9,6.9-15.9,15.8-15.8,8.7,0,15.9,7.2,15.9,15.9s-7.2,15.9-15.9,15.9-15.8-7.2-15.8-15.9h0Z"/>
    <path class="cls-1" d="M336.8,176c0-8.9,6.9-15.9,15.7-15.9s15.9,7.1,16,15.8c0,8.7-7.2,15.9-15.8,15.9s-15.9-7.2-15.9-15.9h0Z"/>
  </g>
</svg>